<?xml version="1.0" standalone="no"?>
<!DOCTYPE svg PUBLIC "-//W3C//DTD SVG 20010904//EN"
 "http://www.w3.org/TR/2001/REC-SVG-20010904/DTD/svg10.dtd">
<svg version="1.0" xmlns="http://www.w3.org/2000/svg"
 width="866.000000pt" height="650.000000pt" viewBox="0 0 866.000000 650.000000"
 preserveAspectRatio="xMidYMid meet">
  
  <defs>
    <linearGradient id="coolYellow" x1="0%" y1="0%" x2="100%" y2="100%">
      <stop offset="0%" style="stop-color:#FFED70; stop-opacity:1" />
      <stop offset="100%" style="stop-color:#FFB700; stop-opacity:1" />
    </linearGradient>
  </defs>

 <g transform="translate(0.000000,650.000000) scale(0.100000,-0.100000)"
     fill="url(#coolYellow)" stroke="none">
<path d="M4011 6075 c-360 -46 -633 -129 -948 -289 -281 -143 -501 -303 -729
-530 -170 -171 -248 -265 -373 -451 -442 -658 -589 -1434 -415 -2185 21 -91
80 -288 89 -298 3 -3 321 182 333 193 2 2 -12 65 -31 142 -56 221 -71 340 -70
573 0 392 70 693 242 1045 240 489 635 883 1126 1125 267 131 475 197 720 226
195 23 184 18 220 102 17 39 34 74 37 77 6 6 166 -101 205 -137 17 -16 43 -23
105 -28 405 -38 772 -171 1127 -407 85 -57 157 -103 161 -103 12 0 131 208
171 298 29 67 35 89 26 100 -26 32 -250 170 -393 242 -302 154 -589 248 -894
295 -149 23 -559 29 -709 10z"/>
<path d="M6157 5653 c-6 -101 -26 -163 -98 -310 -173 -352 -467 -583 -792
-622 -154 -18 -369 19 -505 88 l-57 29 -29 113 c-41 165 -71 251 -127 367 -40
82 -65 119 -124 180 -40 43 -94 92 -119 110 l-45 33 -11 -43 c-34 -130 -78
-278 -117 -393 -75 -218 -262 -681 -294 -724 -16 -23 -52 -55 -79 -72 -78 -48
-133 -148 -116 -212 9 -33 -77 -153 -129 -179 -22 -12 -46 -28 -53 -37 -18
-22 -72 -133 -72 -149 0 -7 -19 -41 -42 -76 -30 -45 -54 -69 -83 -82 -45 -21
-92 -84 -121 -161 -25 -68 -63 -112 -104 -123 -69 -19 -120 -97 -120 -185 0
-42 -3 -45 -197 -238 -254 -250 -344 -326 -556 -466 -60 -39 -148 -92 -195
-117 -309 -166 -398 -223 -497 -315 -210 -197 -262 -457 -139 -700 79 -157
220 -289 401 -375 184 -87 387 -132 639 -141 332 -12 669 45 1071 181 519 175
904 405 1343 802 129 116 533 520 727 727 l110 117 63 -95 c35 -53 67 -98 72
-101 12 -7 544 349 774 517 466 342 747 595 816 736 30 62 33 75 33 163 0 91
-2 100 -38 174 -50 100 -160 246 -277 366 -90 92 -96 101 -190 290 -225 453
-460 805 -634 951 -38 32 -73 59 -76 59 -4 0 -10 -39 -13 -87z m73 -292 c-95
-223 -336 -520 -524 -645 -242 -161 -521 -201 -831 -119 -55 14 -188 57 -295
94 -108 37 -217 70 -242 74 -147 22 -273 -93 -424 -387 l-54 -107 102 -31
c171 -52 190 -66 154 -115 -11 -15 -21 -17 -70 -11 -63 7 -232 59 -286 87 -66
34 -65 33 -41 73 12 20 36 45 52 57 l29 20 0 -24 c0 -14 7 -28 16 -31 9 -4 18
-5 19 -4 1 2 12 28 25 58 35 86 120 251 150 295 44 64 110 124 168 152 48 24
60 25 145 20 81 -4 121 -15 332 -86 294 -99 359 -113 500 -114 141 -1 235 15
360 64 148 57 240 121 390 273 136 136 228 261 310 418 49 94 57 88 15 -11z
m6 -233 c-251 -524 -465 -853 -724 -1115 -181 -183 -373 -315 -727 -499 -174
-91 -220 -119 -272 -169 -78 -76 -94 -123 -65 -189 22 -49 63 -84 143 -120 64
-30 194 -51 258 -42 25 3 43 5 40 3 -2 -2 -130 -109 -284 -237 l-279 -233 -64
69 c-146 159 -256 374 -281 549 -19 132 24 277 110 369 64 71 154 125 430 260
551 270 824 453 1214 813 182 167 297 308 488 599 61 94 114 170 116 168 2 -2
-44 -104 -103 -226z m-1833 -579 c53 -24 62 -96 18 -140 -36 -36 -70 -37 -110
-3 -42 35 -43 84 -2 125 31 31 55 36 94 18z m2676 -255 c114 -191 148 -339
101 -442 -62 -137 -503 -478 -1168 -904 -85 -54 -158 -98 -162 -98 -5 0 -42
43 -84 95 l-74 96 -89 -74 c-48 -40 -167 -139 -263 -218 -96 -80 -231 -197
-300 -260 -188 -173 -675 -581 -843 -706 -386 -288 -863 -506 -1292 -592 -267
-53 -629 -65 -835 -27 -270 49 -488 154 -604 289 -50 59 -96 149 -95 187 0 22
2 20 21 -15 54 -103 217 -218 388 -274 223 -73 557 -80 895 -20 574 103 1063
334 1666 786 194 145 734 576 984 783 208 173 1081 827 1290 967 66 44 153 99
193 122 39 23 72 44 72 47 0 14 -198 -103 -590 -347 -234 -146 -470 -292 -525
-324 -296 -173 -743 -505 -1275 -949 -607 -506 -992 -732 -1565 -922 -449
-148 -815 -187 -1105 -117 -110 26 -260 104 -336 175 -89 84 -145 184 -117
211 3 4 21 -15 39 -41 135 -201 448 -305 821 -273 266 23 559 95 840 207 464
184 735 355 1273 804 634 528 993 793 1475 1085 445 270 602 376 840 570 146
119 273 242 310 298 l18 27 24 -32 c14 -18 46 -69 72 -114z m-2864 -148 c18
-41 5 -98 -28 -121 -23 -16 -74 -20 -94 -7 -6 4 5 7 27 7 47 0 77 25 86 71 4
24 1 42 -10 59 -9 14 -12 25 -6 25 6 0 17 -15 25 -34z m-479 -1 c19 -14 19
-15 -5 -57 -42 -76 -94 -150 -108 -155 -8 -3 -21 1 -29 9 -12 12 -6 27 48 116
35 56 66 102 69 102 3 0 14 -7 25 -15z m-142 -240 c37 -19 113 -49 169 -66
117 -36 132 -46 123 -83 -6 -23 -11 -26 -54 -26 -88 0 -276 65 -341 117 l-24
20 22 37 c12 20 26 36 30 36 5 0 38 -16 75 -35z m-98 -109 c22 -17 21 -21 -58
-128 -49 -67 -50 -68 -73 -50 -13 9 -20 22 -17 27 39 62 114 165 120 165 5 0
17 -6 28 -14z m468 -8 c18 -26 21 -90 6 -119 -11 -20 -60 -49 -83 -49 -8 0
-25 9 -38 20 l-24 20 27 -11 c81 -35 152 76 91 143 -9 10 -11 18 -5 18 6 0 18
-10 26 -22z m-611 -213 c81 -54 250 -125 297 -125 60 0 101 -40 102 -99 0 -38
-4 -49 -31 -73 -38 -34 -79 -36 -112 -7 -23 19 -23 20 -2 10 51 -25 105 -8
121 37 19 55 -4 101 -58 117 -20 6 -23 5 -12 -6 19 -20 14 -47 -12 -64 -23
-15 -30 -14 -117 15 -97 32 -225 95 -271 133 l-28 23 25 37 c14 20 30 37 36
37 5 0 33 -16 62 -35z m-108 -107 c14 -6 25 -14 25 -17 0 -8 -110 -145 -119
-149 -5 -1 -15 8 -24 22 -16 24 -15 26 36 90 29 35 53 65 54 65 1 1 14 -4 28
-11z m-39 -270 c111 -87 164 -118 204 -118 12 0 32 -11 45 -25 57 -56 12 -165
-67 -165 -35 0 -78 23 -78 42 0 6 8 4 18 -5 19 -17 67 -22 97 -11 17 7 45 54
45 78 0 19 -48 76 -65 76 -7 0 -11 -9 -8 -23 7 -33 -19 -51 -62 -43 -71 14
-335 216 -335 257 0 8 9 25 21 38 20 21 22 21 47 5 15 -9 77 -57 138 -106z"/>
<path d="M4322 4524 c-16 -11 -22 -25 -22 -55 0 -35 4 -41 35 -56 34 -16 36
-16 63 4 37 28 43 84 10 107 -28 20 -57 20 -86 0z"/>
<path d="M3064 4898 l-50 -183 -188 -5 -187 -5 146 -94 c81 -51 149 -99 152
-107 2 -7 -25 -89 -61 -183 -36 -93 -66 -172 -66 -176 0 -3 43 29 96 71 120
95 204 154 219 154 7 0 79 -52 160 -116 80 -63 149 -114 151 -111 2 2 -16 58
-42 123 -25 65 -56 146 -69 180 l-23 60 158 100 158 99 -196 5 -196 5 -50 183
c-27 100 -52 182 -56 182 -4 0 -29 -82 -56 -182z"/>
<path d="M7035 3258 c-66 -55 -159 -132 -207 -170 -76 -60 -88 -74 -88 -100 0
-44 -37 -218 -71 -337 -145 -499 -472 -961 -890 -1257 -279 -198 -574 -338
-877 -413 -222 -56 -314 -66 -582 -65 -257 0 -357 10 -545 55 l-90 22 -110
-41 c-228 -83 -400 -128 -597 -157 -27 -4 -48 -11 -48 -15 0 -11 224 -124 335
-168 210 -84 466 -150 705 -184 148 -20 605 -17 750 5 847 132 1529 569 1993
1277 290 443 457 990 457 1497 0 84 -3 153 -7 153 -5 0 -62 -46 -128 -102z"/>
<path d="M5551 2395 c-1 -5 -21 -86 -44 -180 l-43 -170 -167 -5 -166 -5 134
-90 c74 -49 135 -94 135 -99 0 -7 -18 -57 -94 -259 -32 -84 -32 -84 128 58
118 104 120 105 140 87 90 -80 266 -221 266 -213 0 5 -31 80 -70 167 -38 87
-70 161 -70 164 0 3 61 43 134 90 158 100 159 97 -55 99 l-135 1 -46 183 c-25
100 -47 178 -47 172z"/>
</g>
</svg>
