<?xml version="1.0" encoding="UTF-8" standalone="no"?>
<svg xmlns="http://www.w3.org/2000/svg"
     version="1.1"
     width="1080" height="1080"
     viewBox="0 0 1080 1080"
     xml:space="preserve">
  <defs>\depositphotos_56521723-stock-illustration-illustration-with-silhouette-of-running_1.svg
    <linearGradient id="fireGradient" x1="0%" y1="100%" x2="0%" y2="0%">
      <stop offset="0%" stop-color="#3B0C00" />
      <stop offset="100%" stop-color="#FF7F1A" />
    </linearGradient>
  </defs>

  <rect x="0" y="0" width="100%" height="100%" fill="transparent"/>
  
  <g transform="matrix(0.13 0 0 -0.13 561.64 540)">
    <path
      style="stroke: none; fill: url(#fireGradient); fill-rule: nonzero; opacity: 1;"
      transform="translate(-2953.54, -256.54)"
      d="M 4286 1911 C 4267 1820 4229 1735 4187 1691 C 4169 1672 4112 1637 4055 1610 C 3975 1573 3945 1552 3904 1507 C 3849 1447 3807 1359 3795 1276 C 3789 1237 3785 1231 3775 1242 C 3723 1298 3732 1505 3791 1623 C 3819 1678 3845 1710 3878 1732 C 3921 1761 3923 1754 3886 1684 C 3853 1623 3832 1555 3842 1545 C 3844 1542 3872 1565 3902 1595 C 3948 1639 3971 1653 4029 1670 C 4155 1709 4249 1825 4282 1983 C 4292 2032 4296 2039 4298 2014 C 4300 1997 4294 1951 4286 1911 z M 4785 2005 C 4705 1948 4684 1930 4649 1889 C 4628 1864 4595 1815 4575 1781 C 4556 1747 4490 1658 4428 1584 C 4308 1441 4242 1342 4216 1269 C 4195 1209 4195 1252 4216 1334 C 4240 1428 4291 1515 4395 1640 C 4510 1777 4530 1816 4537 1916 L 4543 1993 L 4567 1952 L 4592 1910 L 4628 1940 C 4662 1967 4771 2019 4795 2019 C 4801 2019 4796 2013 4785 2005 z M 3940 1845 C 3956 1836 3977 1815 3986 1798 L 4003 1766 L 3979 1782 C 3916 1823 3844 1810 3797 1749 C 3757 1696 3712 1593 3694 1512 C 3678 1439 3678 1291 3694 1245 L 3702 1225 L 3685 1245 C 3676 1256 3660 1296 3648 1333 C 3621 1423 3626 1577 3658 1660 C 3684 1727 3743 1806 3789 1837 C 3829 1864 3896 1868 3940 1845 z M 3504 1628 C 3548 1557 3570 1490 3577 1398 C 3585 1298 3569 1223 3512 1080 L 3465 965 L 3468 845 C 3470 779 3473 698 3473 665 C 3475 617 3469 593 3446 545 C 3415 482 3294 350 3267 350 C 3259 350 3240 366 3226 385 L 3199 420 L 3233 450 C 3278 489 3326 581 3344 661 C 3352 696 3361 772 3364 830 C 3370 922 3377 955 3425 1095 C 3492 1292 3510 1366 3509 1450 C 3509 1508 3487 1613 3466 1663 C 3450 1698 3471 1678 3504 1628 z M 4273 1594 C 4317 1586 4321 1575 4281 1567 C 4211 1553 4151 1451 4129 1307 C 4114 1213 4122 1120 4155 990 C 4201 808 4181 713 4081 647 C 4045 623 3970 596 3970 607 C 3970 609 3984 632 4002 657 C 4043 717 4070 807 4070 882 C 4070 915 4061 1007 4049 1087 C 4023 1268 4031 1357 4084 1465 C 4103 1503 4117 1536 4116 1537 C 4114 1539 4098 1530 4079 1517 C 3974 1446 3939 1290 3972 1029 C 3986 916 3972 774 3940 687 C 3906 596 3765 444 3722 452 C 3697 457 3612 630 3589 721 C 3544 899 3591 1075 3700 1130 C 3761 1161 3776 1157 3746 1117 C 3647 988 3641 840 3728 690 C 3742 666 3755 650 3756 655 C 3758 661 3764 736 3770 823 C 3791 1124 3855 1360 3953 1492 C 4014 1575 4141 1615 4273 1594 z M 3424 1468 C 3413 1343 3409 1324 3385 1284 C 3371 1261 3338 1226 3311 1206 C 3249 1160 3231 1132 3204 1040 C 3182 965 3182 965 3170 995 C 3142 1065 3158 1146 3217 1229 C 3234 1253 3234 1253 3210 1240 C 3175 1222 3131 1180 3114 1148 C 3093 1108 3097 1061 3126 989 C 3169 884 3157 785 3093 728 C 3061 699 2987 670 2941 670 L 2897 670 L 2938 700 C 3015 756 3036 821 3014 945 C 2980 1143 3036 1247 3228 1344 C 3292 1376 3330 1403 3363 1440 C 3389 1469 3410 1498 3410 1506 C 3410 1514 3414 1520 3420 1520 C 3425 1520 3427 1498 3424 1468 z M 3070 1500 C 3070 1495 3064 1490 3057 1490 C 3033 1490 2961 1432 2944 1398 C 2931 1372 2927 1343 2929 1267 C 2931 1142 2914 1100 2823 1009 C 2759 944 2758 942 2780 930 C 2800 920 2807 924 2859 977 C 2890 1009 2923 1046 2932 1060 C 2949 1084 2949 1083 2949 1005 C 2950 916 2930 820 2900 761 C 2890 740 2858 703 2829 679 C 2738 602 2715 574 2699 524 L 2683 475 L 2666 512 C 2632 590 2653 687 2720 763 C 2757 805 2754 808 2702 781 C 2593 725 2568 640 2611 472 C 2633 382 2629 347 2589 296 C 2565 266 2498 225 2456 216 L 2428 209 L 2463 252 C 2507 307 2528 348 2535 396 C 2541 433 2539 438 2489 485 C 2460 513 2441 526 2445 515 C 2449 504 2455 465 2458 428 C 2462 363 2461 358 2424 301 L 2386 242 L 2330 263 C 2300 275 2272 289 2268 295 C 2261 305 2256 296 2259 278 C 2259 273 2253 270 2244 270 C 2231 270 2230 273 2239 284 C 2245 291 2248 305 2244 314 C 2241 323 2243 330 2250 330 C 2256 330 2259 326 2256 321 C 2253 316 2258 309 2267 306 C 2287 298 2363 368 2386 415 C 2400 442 2400 443 2385 426 C 2377 415 2370 412 2370 418 C 2370 425 2365 430 2360 430 C 2353 430 2353 424 2360 410 C 2373 385 2362 384 2343 408 C 2330 423 2329 422 2334 394 C 2338 370 2334 358 2316 341 C 2304 329 2291 323 2287 326 C 2283 330 2289 340 2298 349 C 2314 362 2317 384 2319 480 C 2321 578 2324 596 2341 611 C 2351 620 2360 639 2360 654 C 2360 673 2365 680 2380 680 C 2397 680 2400 687 2400 720 C 2400 753 2403 760 2420 760 C 2437 760 2440 767 2440 800 C 2440 833 2443 840 2460 840 C 2473 840 2480 847 2480 860 C 2480 873 2487 880 2500 880 C 2513 880 2520 887 2520 900 C 2520 918 2527 920 2590 920 C 2653 920 2660 922 2660 940 C 2660 953 2667 960 2679 960 C 2690 960 2700 966 2703 973 C 2706 981 2712 979 2723 965 C 2736 948 2740 948 2754 959 C 2763 967 2769 979 2766 986 C 2763 993 2766 1002 2772 1006 C 2779 1011 2780 1008 2776 999 C 2772 991 2775 994 2784 1004 C 2792 1014 2797 1027 2794 1031 C 2791 1036 2794 1040 2800 1040 C 2807 1040 2809 1049 2805 1063 C 2801 1078 2802 1081 2808 1072 C 2824 1048 2833 1088 2840 1220 C 2845 1319 2851 1354 2868 1386 C 2893 1435 2950 1487 2988 1496 C 3003 1499 3020 1503 3025 1505 C 3046 1512 3070 1510 3070 1500 z M 4304 1205 C 4284 1141 4290 1028 4315 980 C 4342 928 4340 818 4312 763 C 4288 716 4240 675 4196 664 C 4167 657 4167 657 4207 697 C 4275 765 4285 833 4240 931 C 4216 984 4214 1061 4235 1121 C 4250 1164 4309 1264 4316 1257 C 4318 1256 4312 1232 4304 1205 z M 3376 1159 C 3341 1083 3323 1003 3311 870 C 3305 807 3293 733 3284 706 C 3252 615 3161 548 3035 525 L 2996 518 L 3060 562 C 3170 635 3209 713 3231 902 C 3247 1043 3270 1099 3337 1167 C 3367 1197 3394 1220 3396 1217 C 3398 1215 3389 1189 3376 1159 z M 2827 1128 C 2824 1121 2822 1126 2822 1140 C 2822 1154 2824 1159 2827 1153 C 2829 1146 2829 1134 2827 1128 z M 4491 680 C 4449 570 4398 521 4305 504 C 4258 496 4199 468 4181 446 C 4169 432 4171 431 4196 435 C 4212 437 4258 444 4299 450 C 4339 456 4381 465 4391 471 C 4421 487 4414 465 4380 436 C 4348 410 4293 390 4249 390 C 4207 390 4128 363 4077 330 L 4028 299 L 4035 332 C 4045 375 4077 439 4104 469 L 4125 492 L 4100 485 C 4032 465 4008 433 3985 333 C 3966 248 3937 201 3890 178 C 3852 158 3784 155 3760 170 C 3748 178 3751 180 3772 180 C 3829 180 3890 264 3929 395 C 3963 511 4018 576 4101 600 C 4120 606 4182 610 4239 610 C 4362 610 4406 626 4467 694 C 4488 717 4506 735 4508 734 C 4510 733 4502 709 4491 680 z M 2989 621 C 2999 615 2993 609 2967 601 C 2947 594 2920 580 2906 569 C 2853 528 2883 486 2979 467 L 3041 454 L 3015 430 C 2994 410 2976 405 2920 402 C 2863 398 2845 402 2811 421 C 2758 451 2734 498 2750 545 C 2763 585 2777 598 2827 616 C 2870 631 2968 634 2989 621 z M 3571 439 C 3543 411 3508 362 3493 331 C 3469 283 3465 263 3465 190 C 3465 143 3469 71 3473 30 L 3481 -45 L 3432 55 C 3405 110 3371 174 3357 197 C 3342 221 3330 247 3330 256 C 3330 288 3380 358 3428 394 C 3473 427 3595 490 3613 490 C 3617 490 3598 467 3571 439 z M 3140 466 C 3140 464 3133 460 3125 456 C 3117 453 3110 455 3110 460 C 3110 466 3117 470 3125 470 C 3133 470 3140 468 3140 466 z M 4525 408 C 4470 300 4424 259 4320 226 C 4260 206 4203 158 4234 152 C 4263 146 4387 189 4419 216 C 4455 246 4458 239 4431 193 C 4406 153 4345 118 4255 91 C 4161 64 4105 26 4035 -56 C 4003 -94 3952 -142 3921 -163 C 3860 -204 3758 -240 3704 -240 C 3669 -240 3590 -213 3590 -201 C 3590 -197 3612 -186 3638 -177 C 3787 -123 3960 48 4021 202 C 4066 317 4124 349 4291 350 C 4401 350 4408 351 4452 379 C 4477 395 4507 422 4520 439 C 4553 486 4555 470 4525 408 z M 3083 353 C 3082 289 3076 261 3056 218 C 3006 112 2873 19 2747 1 C 2658 -12 2560 8 2427 64 C 2301 117 2241 124 2203 88 C 2169 56 2162 75 2195 110 C 2236 153 2303 152 2413 106 C 2561 45 2677 34 2794 70 C 2905 105 2957 168 3000 321 C 3019 392 3053 444 3074 437 C 3081 434 3084 402 3083 353 z M 3175 389 C 3247 326 3372 115 3441 -56 C 3490 -180 3466 -179 3406 -54 C 3345 71 3291 140 3254 140 C 3240 140 3201 133 3166 124 C 3109 110 3100 110 3066 124 L 3029 140 L 3053 172 C 3085 216 3100 263 3100 321 C 3100 373 3114 420 3129 420 C 3135 420 3155 406 3175 389 z M 2722 354 C 2735 322 2739 299 2734 273 C 2725 222 2685 149 2645 110 C 2617 82 2608 79 2576 85 C 2556 89 2540 95 2540 99 C 2541 102 2561 120 2586 138 C 2669 199 2713 301 2691 378 C 2677 424 2697 409 2722 354 z M 2844 351 C 2910 314 2941 233 2908 181 C 2882 140 2874 142 2878 189 C 2880 212 2875 239 2866 256 L 2851 285 L 2850 245 C 2850 184 2809 105 2771 92 C 2734 79 2734 79 2759 122 C 2787 168 2812 269 2804 305 C 2801 322 2788 345 2776 358 L 2755 382 L 2785 375 C 2802 371 2828 360 2844 351 z M 3836 332 C 3818 297 3795 278 3744 252 C 3681 220 3625 146 3618 85 L 3615 57 L 3695 59 C 3792 61 3836 72 3884 105 C 3904 118 3920 126 3920 121 C 3920 100 3828 -10 3782 -43 C 3727 -84 3640 -127 3594 -135 C 3559 -142 3544 -122 3530 -52 C 3506 81 3605 287 3708 318 C 3730 325 3758 330 3771 330 C 3784 331 3806 337 3820 345 C 3834 353 3846 359 3848 360 C 3849 360 3844 348 3836 332 z M 2198 280 C 2223 269 2252 263 2265 266 C 2277 269 2291 267 2294 262 C 2297 256 2291 254 2278 256 C 2265 258 2271 254 2291 246 C 2363 218 2390 200 2390 180 C 2390 162 2383 160 2313 160 C 2218 159 2198 149 2151 79 C 2116 27 2048 -30 2042 -12 C 2040 -4 2094 257 2105 288 C 2111 306 2149 303 2198 280 z M 3025 96 C 3059 73 3103 69 3155 85 C 3265 118 3306 94 3371 -40 C 3434 -170 3433 -172 3335 -235 C 3270 -277 2893 -480 2880 -480 C 2875 -480 2828 -447 2776 -406 C 2617 -282 2433 -181 2307 -149 L 2259 -137 L 2293 -101 C 2320 -72 2403 30 2405 37 C 2405 37 2439 27 2480 12 C 2544 -9 2573 -14 2675 -14 C 2787 -15 2799 -13 2851 13 C 2882 28 2927 56 2951 75 C 3002 115 3000 114 3025 96 z M 2321 84 C 2351 75 2378 65 2382 62 C 2394 50 2274 -87 2205 -140 C 2153 -182 2135 -204 2105 -265 C 2084 -306 2042 -368 2011 -402 C 1980 -437 1947 -477 1937 -492 C 1919 -521 1825 -600 1809 -600 C 1804 -600 1800 -592 1800 -582 C 1800 -573 1787 -554 1770 -540 C 1741 -516 1740 -514 1756 -492 L 1772 -469 L 1804 -490 C 1860 -524 1900 -512 1900 -460 C 1900 -442 1890 -426 1870 -412 C 1836 -387 1835 -382 1854 -357 C 1867 -340 1869 -340 1901 -359 C 1939 -383 1970 -386 1988 -368 C 2010 -346 2001 -312 1965 -285 C 1932 -260 1931 -257 1946 -235 L 1961 -212 L 2005 -237 C 2040 -256 2053 -259 2070 -250 C 2081 -244 2090 -236 2091 -232 C 2091 -228 2093 -215 2096 -204 C 2098 -188 2090 -176 2065 -159 C 2026 -133 2024 -124 2045 -96 C 2058 -79 2062 -78 2077 -91 C 2135 -139 2174 -139 2192 -91 C 2199 -71 2194 -62 2164 -33 L 2127 1 L 2156 31 C 2181 58 2243 98 2261 100 C 2264 100 2291 93 2321 84 z M 2144 -42 C 2178 -72 2180 -77 2167 -94 C 2154 -111 2149 -112 2122 -101 C 2105 -94 2084 -80 2074 -69 C 2058 -51 2058 -49 2075 -30 C 2099 -4 2100 -4 2144 -42 z M 2041 -161 C 2083 -194 2089 -210 2065 -230 C 2053 -240 2042 -237 2005 -216 C 1980 -201 1960 -186 1960 -182 C 1960 -172 1990 -130 1997 -130 C 2000 -130 2020 -144 2041 -161 z M 4208 -183 C 4269 -211 4398 -213 4448 -187 C 4497 -161 4487 -182 4420 -243 C 4351 -307 4306 -325 4175 -339 C 4038 -354 4023 -363 4113 -379 C 4201 -395 4279 -383 4335 -344 C 4389 -307 4389 -315 4335 -371 C 4255 -452 4224 -464 4107 -456 C 3971 -447 3935 -458 3853 -533 C 3772 -606 3696 -643 3615 -648 L 3555 -651 L 3606 -621 C 3674 -581 3735 -511 3794 -404 C 3858 -288 3955 -188 4026 -166 C 4085 -148 4142 -153 4208 -183 z M 2351 -199 C 2397 -214 2471 -246 2516 -268 C 2593 -307 2772 -422 2833 -472 L 2862 -495 L 2744 -560 C 2679 -596 2579 -656 2522 -693 L 2417 -761 L 2371 -717 C 2311 -658 2277 -643 2175 -625 C 2043 -602 1950 -559 1950 -520 C 1950 -510 1977 -478 2011 -450 C 2057 -410 2079 -380 2105 -326 C 2150 -232 2203 -170 2239 -170 C 2254 -170 2304 -183 2351 -199 z M 3510 -178 C 3510 -190 3449 -244 3410 -267 C 3391 -278 3265 -345 3130 -415 C 2801 -587 2666 -665 2449 -812 C 2222 -964 2029 -1061 1740 -1168 C 1287 -1336 1156 -1370 1115 -1330 C 1102 -1316 1108 -1314 1178 -1315 C 1261 -1315 1299 -1304 1605 -1193 C 1985 -1055 2280 -914 2415 -805 C 2523 -718 2686 -622 3163 -365 C 3283 -301 3406 -231 3438 -209 C 3496 -170 3510 -164 3510 -178 z M 1950 -293 C 1980 -316 1988 -344 1969 -355 C 1954 -365 1917 -353 1887 -330 C 1861 -310 1861 -308 1877 -284 C 1895 -257 1907 -258 1950 -293 z M 3616 -405 C 3625 -456 3591 -519 3527 -569 C 3479 -606 3251 -719 2545 -1057 C 2118 -1262 1916 -1346 1628 -1438 C 1324 -1537 1245 -1539 1162 -1453 C 1138 -1428 1121 -1406 1124 -1403 C 1127 -1400 1144 -1403 1161 -1409 C 1215 -1428 1321 -1433 1385 -1421 C 1563 -1386 1918 -1264 2173 -1150 C 2246 -1118 2570 -961 2894 -800 C 3436 -532 3486 -505 3536 -455 C 3566 -426 3590 -394 3590 -386 C 3590 -356 3609 -370 3616 -405 z M 1846 -417 C 1870 -435 1880 -450 1878 -464 C 1874 -495 1840 -495 1801 -462 C 1770 -436 1768 -432 1781 -412 C 1799 -384 1804 -384 1846 -417 z M 1752 -546 C 1794 -576 1796 -579 1777 -604 C 1761 -626 1738 -621 1695 -586 C 1665 -562 1665 -562 1684 -541 C 1708 -515 1706 -515 1752 -546 z M 2040 -618 C 2070 -629 2126 -643 2165 -649 C 2247 -664 2319 -700 2362 -748 L 2392 -783 L 2308 -837 C 2156 -937 1972 -1020 1578 -1169 C 1283 -1280 1159 -1310 1132 -1277 C 1122 -1265 1116 -1216 1119 -1170 C 1120 -1147 1124 -1145 1168 -1144 C 1226 -1142 1291 -1120 1502 -1031 C 1753 -925 1800 -900 1821 -866 C 1848 -822 1845 -798 1805 -746 C 1786 -720 1770 -693 1770 -686 C 1770 -664 1820 -610 1868 -579 L 1912 -551 L 1949 -575 C 1969 -589 2010 -608 2040 -618 z M 1721 -624 L 1768 -647 L 1738 -703 C 1699 -775 1638 -825 1588 -825 C 1533 -825 1523 -809 1550 -766 C 1562 -746 1574 -730 1576 -730 C 1579 -730 1599 -739 1621 -751 C 1659 -770 1663 -770 1686 -755 C 1720 -733 1717 -697 1680 -670 C 1648 -647 1643 -631 1662 -612 C 1669 -605 1674 -600 1675 -600 C 1675 -600 1696 -611 1721 -624 z M 1657 -676 C 1693 -703 1698 -721 1676 -739 C 1659 -753 1631 -742 1593 -707 C 1571 -688 1571 -685 1587 -668 C 1608 -644 1617 -645 1657 -676 z M 1789 -756 C 1817 -792 1816 -841 1788 -867 C 1757 -895 1669 -938 1486 -1014 C 1272 -1104 1150 -1139 1150 -1112 C 1150 -1108 1232 -1043 1333 -968 L 1515 -831 L 1556 -842 C 1614 -858 1643 -847 1702 -786 C 1731 -756 1758 -731 1762 -731 C 1766 -730 1778 -742 1789 -756 z"
    />
  </g>
</svg>
