<?xml version="1.0" standalone="no"?>
<!DOCTYPE svg PUBLIC "-//W3C//DTD SVG 20010904//EN"
 "http://www.w3.org/TR/2001/REC-SVG-20010904/DTD/svg10.dtd">
<svg version="1.0" xmlns="http://www.w3.org/2000/svg"
 width="360.000000pt" height="360.000000pt" viewBox="0 0 360.000000 360.000000"
 preserveAspectRatio="xMidYMid meet">

<defs>
  <style type="text/css"><![CDATA[
    .dark   { fill: #1E2F44; }
    .accent { fill: #1994D4; }
  ]]></style>
</defs>

<g transform="translate(0.000000,360.000000) scale(0.100000,-0.100000)">
<path class="dark" d="M1462 2635 c-264 -58 -477 -225 -593 -468 -60 -127 -81 -220 -81
-367 0 -186 46 -334 150 -487 44 -64 116 -143 131 -143 5 0 11 19 13 43 4 37
0 48 -38 97 -69 89 -113 170 -142 260 -24 76 -27 100 -27 230 0 153 10 201 60
317 55 123 167 252 284 328 344 221 802 137 1036 -190 46 -65 95 -158 115
-219 12 -37 14 -38 47 -33 20 4 38 8 41 11 3 3 -5 34 -18 68 -122 344 -443
570 -804 567 -61 0 -139 -7 -174 -14z"/>
<path class="dark" d="M1610 2479 c0 -5 5 -7 10 -4 6 3 10 8 10 11 0 2 -4 4 -10 4 -5 0 -10
-5 -10 -11z"/>
<path class="accent" d="M1774 2380 c-34 -14 -36 -17 -49 -135 -4 -32 -16 -89 -27 -125 -16
-49 -19 -80 -14 -129 l5 -63 -49 -44 c-61 -56 -89 -120 -72 -168 17 -45 16
-46 -22 -46 -19 0 -42 -8 -52 -17 -26 -26 -73 -133 -86 -195 -11 -51 -10 -57
11 -87 18 -25 20 -35 11 -46 -7 -8 -18 -15 -24 -15 -20 -1 -51 -33 -96 -100
-24 -36 -58 -85 -77 -109 -38 -51 -42 -71 -12 -71 28 0 158 126 214 209 25 37
71 125 104 196 32 72 95 206 140 299 102 211 189 407 207 466 15 48 18 128 6
146 -26 37 -76 51 -118 34z"/>
<path class="accent" d="M1355 2349 c-60 -4 -111 -7 -112 -8 -11 -5 2 -32 25 -54 16 -15 41
-54 57 -87 l28 -59 -19 -42 c-10 -23 -24 -48 -32 -55 -10 -10 -10 -19 -2 -34
14 -26 32 -25 57 3 65 70 80 145 43 217 -16 31 -17 41 -8 49 49 39 82 70 78
73 -3 2 -54 0 -115 -3z"/>
<path class="dark" d="M1451 2301 l-44 -39 16 -35 c36 -76 10 -179 -61 -237 -20 -17 -40
-30 -44 -30 -3 0 -17 14 -29 32 -21 29 -22 33 -7 59 16 28 16 28 -28 64 -59
49 -78 44 -82 -20 -2 -28 2 -80 8 -117 11 -61 14 -67 30 -58 54 29 107 -14 62
-50 -15 -13 -17 -21 -10 -34 7 -12 7 -26 0 -40 -5 -12 -8 -34 -5 -47 3 -15 -1
-30 -11 -38 -10 -9 -13 -22 -9 -42 4 -20 0 -35 -11 -48 -14 -15 -15 -24 -7
-40 18 -32 13 -58 -17 -93 -26 -30 -30 -45 -42 -153 -23 -218 -24 -241 -6
-248 26 -10 71 38 106 115 18 40 47 90 63 112 22 28 33 55 39 100 13 97 44
177 108 276 105 163 171 355 185 537 8 104 15 97 -95 107 -65 6 -65 6 -109
-33z"/>
<path class="dark" d="M2104 2197 c-17 -19 11 -43 29 -25 11 10 12 15 1 25 -15 16 -16 16
-30 0z"/>
<path class="accent" d="M1885 1979 c-31 -56 -55 -103 -53 -105 2 -2 28 8 58 22 l55 25 35
-39 c19 -22 45 -45 57 -51 40 -20 151 -11 192 15 1 2 -4 13 -13 25 -13 20 -23
22 -79 20 l-64 -2 -41 54 c-23 30 -44 68 -48 83 -7 31 -22 54 -34 54 -5 0 -34
-45 -65 -101z"/>
<path class="dark" d="M2140 2035 c-10 -12 -10 -25 2 -68 13 -47 18 -52 43 -52 32 0 71 -44
62 -70 -18 -45 -173 -62 -233 -24 -19 11 -42 34 -51 50 -10 16 -20 28 -23 26
-3 -1 -23 -11 -45 -21 -22 -10 -46 -22 -54 -25 -15 -8 -67 -148 -58 -157 11
-11 155 -66 226 -86 69 -20 103 -22 361 -23 267 -1 289 -3 345 -24 51 -18 67
-20 108 -11 26 5 92 10 146 10 83 0 103 3 122 19 24 20 24 20 4 39 -11 11 -51
30 -90 42 -38 13 -110 38 -159 57 -64 25 -91 32 -99 24 -20 -20 -76 -13 -101
12 -17 17 -32 23 -53 20 -20 -3 -34 2 -47 16 -14 16 -22 18 -36 9 -14 -9 -24
-8 -44 5 -14 9 -34 17 -44 17 -10 0 -24 6 -31 13 -6 6 -29 12 -49 12 -27 0
-37 5 -40 18 -4 19 24 57 41 57 6 0 3 -8 -6 -18 -35 -39 -13 -68 27 -37 17 13
20 12 31 -8 7 -15 20 -22 40 -22 16 -1 30 -6 33 -13 5 -15 34 -16 49 -1 7 7
18 3 36 -15 21 -21 30 -24 51 -17 19 8 26 6 30 -6 12 -30 16 -6 5 25 -12 36
-29 42 -29 11 0 -31 -52 -23 -60 10 -7 32 -27 38 -35 11 -7 -23 -42 -24 -37
-1 4 20 -8 51 -20 51 -5 0 -8 -6 -5 -14 9 -22 -19 -41 -38 -26 -8 7 -15 19
-15 26 0 18 -20 18 -48 -2 -26 -18 -30 -4 -4 18 61 55 258 45 392 -19 76 -37
79 -38 46 -10 -47 40 -148 69 -263 75 -60 2 -114 0 -132 -6 -27 -10 -34 -8
-61 16 -37 33 -149 102 -166 102 -6 0 -17 -7 -24 -15z"/>
<path class="dark" d="M960 1910 c0 -5 5 -10 10 -10 6 0 10 5 10 10 0 6 -4 10 -10 10 -5 0
-10 -4 -10 -10z"/>
<path class="accent" d="M1208 1902 c-32 -21 -59 -54 -86 -107 -44 -87 -78 -249 -63 -300 8
-26 9 -22 10 30 2 104 57 274 108 330 21 24 64 55 75 55 18 0 6 -21 -17 -30
-29 -11 -31 -22 -10 -40 19 -15 19 -34 2 -49 -10 -8 -17 -7 -25 1 -6 6 -14 9
-17 6 -7 -6 19 -34 37 -40 19 -7 1 -38 -22 -38 -24 0 -26 -13 -5 -30 28 -23
10 -75 -21 -63 -21 8 -17 -11 6 -32 20 -18 26 -60 12 -81 -4 -5 -18 -18 -32
-27 -15 -10 -19 -17 -10 -17 44 1 78 66 56 108 -12 23 -11 29 7 53 19 27 19
29 3 53 -14 22 -14 26 -2 26 21 0 36 32 25 52 -6 11 -6 19 1 23 13 8 13 52 0
60 -14 9 -12 25 3 25 19 0 36 20 30 36 -7 19 -33 17 -65 -4z"/>
<path class="dark" d="M2412 1878 c5 -15 28 -23 28 -10 0 5 -7 13 -16 16 -10 4 -14 1 -12
-6z"/>
<path class="dark" d="M2490 1844 c0 -8 5 -12 10 -9 6 4 8 11 5 16 -9 14 -15 11 -15 -7z"/>
<path class="dark" d="M2563 1827 c5 -15 37 -22 37 -9 0 5 -9 12 -21 15 -13 3 -19 1 -16 -6z"/>
<path class="dark" d="M1202 1821 c4 -13 18 -16 19 -4 0 4 -5 9 -11 12 -7 2 -11 -2 -8 -8z"/>
<path class="dark" d="M2662 1788 c3 -7 18 -14 34 -16 l29 -3 -29 16 c-34 18 -39 19 -34 3z"/>
<path class="dark" d="M2728 1763 c-21 -11 -32 -11 -49 -3 -11 7 -23 9 -26 7 -2 -3 5 -11
17 -17 25 -13 73 -5 91 16 14 17 3 17 -33 -3z"/>
<path class="dark" d="M1198 1743 c7 -3 16 -2 19 1 4 3 -2 6 -13 5 -11 0 -14 -3 -6 -6z"/>
<path class="dark" d="M987 1682 c-13 -15 -13 -19 -1 -30 12 -11 17 -11 28 1 11 10 11 17 1
30 -11 16 -13 16 -28 -1z"/>
<path class="dark" d="M1180 1661 c0 -12 5 -21 10 -21 6 0 10 6 10 14 0 8 -4 18 -10 21 -5
3 -10 -3 -10 -14z"/>
<path class="accent" d="M1669 1611 c-37 -37 -40 -88 -6 -119 64 -60 180 -71 797 -75 l435 -2
85 29 c99 33 150 61 150 83 0 13 -9 15 -52 10 -150 -17 -242 -37 -269 -56 -38
-29 -65 -27 -73 4 -10 40 -59 58 -168 63 -121 5 -142 0 -158 -38 -14 -35 -24
-37 -42 -12 -35 50 -125 57 -207 16 l-52 -26 -27 25 c-38 35 -56 42 -150 61
-46 9 -114 28 -151 41 -38 14 -72 25 -75 25 -4 0 -21 -13 -37 -29z"/>
<path class="dark" d="M1170 1545 c0 -22 4 -34 10 -30 6 3 10 17 10 30 0 13 -4 27 -10 30
-6 4 -10 -8 -10 -30z"/>
<path class="dark" d="M2204 1282 c-189 -209 -487 -298 -760 -227 l-61 16 -34 -30 c-18 -17
-31 -32 -28 -34 9 -7 116 -37 168 -47 29 -5 100 -10 156 -10 274 0 534 138
694 368 l22 32 -48 0 c-47 0 -50 -2 -109 -68z"/>
<path class="dark" d="M1630 1284 c0 -8 5 -12 10 -9 6 3 10 10 10 16 0 5 -4 9 -10 9 -5 0
-10 -7 -10 -16z"/>
<path class="dark" d="M1871 1233 c-20 -19 -21 -23 -7 -23 9 0 21 -10 26 -22 7 -18 9 -19 9
-5 1 10 11 21 23 26 l23 8 -22 7 c-12 4 -23 12 -25 19 -2 8 -12 4 -27 -10z"/>
</g>
</svg>
